<?xml version="1.0" encoding="UTF-8"?>
<svg version="1.1" xmlns="http://www.w3.org/2000/svg" width="512" height="512">
<path d="M0 0 C9.57523321 6.08134433 16.35845407 14.05326507 18.921875 25.3046875 C19.64128966 31.79558606 19.24515747 37.75514446 17.984375 44.14257812 C17.8456044 44.87704414 17.7068338 45.61151016 17.56385803 46.36823273 C17.11839666 48.7169008 16.66296935 51.06350215 16.20703125 53.41015625 C15.92837139 54.87129259 15.65037427 56.33255548 15.37304688 57.79394531 C14.3465523 63.17796574 13.3072852 68.55954469 12.26953125 73.94140625 C9.95953125 85.98640625 7.64953125 98.03140625 5.26953125 110.44140625 C40.57953125 110.44140625 75.88953125 110.44140625 112.26953125 110.44140625 C112.92953125 105.82140625 113.58953125 101.20140625 114.26953125 96.44140625 C114.73048293 93.72697388 115.2097403 91.01549446 115.71826172 88.30957031 C115.84867859 87.61157822 115.97909546 86.91358612 116.11346436 86.19444275 C116.53437648 83.94796176 116.96004532 81.70242464 117.38671875 79.45703125 C117.60816244 78.28694645 117.60816244 78.28694645 117.83407974 77.09322357 C118.61323012 72.976672 119.39604075 68.86083766 120.18212891 64.74560547 C120.98681937 60.52924369 121.77905955 56.31064172 122.56851006 52.09140396 C123.18459298 48.81105738 123.80976497 45.53248917 124.43735123 42.25432587 C124.73329334 40.70022469 125.02592831 39.14548953 125.31499863 37.59009552 C127.82968764 24.08929735 130.54637978 12.83248922 141.26953125 3.44140625 C151.42317069 -2.95597351 162.55257113 -4.24281059 174.26171875 -1.98046875 C184.48485734 1.61232756 191.36075294 9.46518992 196.2109375 18.86328125 C199.51638094 30.03592401 197.76549254 40.70052071 195.55859375 51.84765625 C195.26665007 53.38624147 194.97618115 54.92510717 194.68710327 56.4642334 C193.92948376 60.47639207 193.15206624 64.48445367 192.37017822 68.49194336 C191.57693936 72.57692502 190.8030547 76.66556693 190.02734375 80.75390625 C188.1443786 90.65661292 186.25634198 100.55892977 184.26953125 110.44140625 C185.21341202 110.42808258 185.21341202 110.42808258 186.17636108 110.41448975 C192.76315163 110.32556032 199.34976987 110.26548366 205.93701172 110.22167969 C208.39085831 110.20164301 210.84465762 110.17440593 213.29833984 110.13964844 C216.83833528 110.09078127 220.37769593 110.06835705 223.91796875 110.05078125 C225.54670425 110.01981354 225.54670425 110.01981354 227.20834351 109.98822021 C237.37086913 109.98526888 245.37410229 112.92016825 253.2265625 119.3828125 C260.44568388 126.65714705 263.67279879 135.56823357 263.64453125 145.69140625 C263.56723539 156.80417306 260.66798548 164.00646688 252.9140625 172.171875 C245.61901515 178.43246955 237.44194437 181.57363541 227.94042969 181.55493164 C226.65940369 181.55485611 225.37837769 181.55478058 224.05853271 181.55470276 C222.6653235 181.54959651 221.27211468 181.54438052 219.87890625 181.5390625 C218.44972788 181.53719657 217.02054887 181.53577349 215.59136963 181.53477478 C211.83652977 181.5309634 208.08172882 181.52114492 204.3269043 181.5100708 C200.49268113 181.499827 196.65845166 181.4952708 192.82421875 181.49023438 C185.30597188 181.47952139 177.78775702 181.46246156 170.26953125 181.44140625 C170.17675274 181.98777017 170.08397423 182.53413408 169.98838425 183.09705448 C167.13806935 199.82186841 164.02825439 216.49148403 160.84765625 233.15625 C160.33734578 235.83615862 159.82758567 238.51617185 159.31781006 241.19618225 C158.12587736 247.46077809 156.93212065 253.72502479 155.7376554 259.98913819 C154.37458134 267.13798817 153.01362155 274.28724017 151.65281153 281.43652141 C148.86068473 296.10525487 146.06599318 310.77349858 143.26953125 325.44140625 C144.07417816 325.43474442 144.87882507 325.42808258 145.70785522 325.42121887 C153.32768476 325.36086026 160.94739674 325.31530695 168.56740379 325.28596973 C172.4840053 325.27037964 176.40040762 325.24926478 180.31689453 325.21508789 C184.10353145 325.18225464 187.88997797 325.16450331 191.67674637 325.15677452 C193.11429461 325.15127365 194.55183361 325.14053296 195.98929977 325.12421608 C209.31624817 324.97909259 219.98897856 326.7510043 230.0234375 336.0703125 C237.6770067 344.33770179 239.67136619 353.81988831 239.53515625 364.7734375 C238.77051141 375.33228317 233.97646941 382.40739679 226.26953125 389.44140625 C219.34826537 394.79251199 212.72540555 396.75190086 203.96923828 396.66845703 C203.15881577 396.66874908 202.34839325 396.66904114 201.51341248 396.66934204 C198.85127829 396.66795562 196.18942867 396.65242699 193.52734375 396.63671875 C191.67504021 396.63298617 189.82273469 396.63014036 187.97042847 396.62814331 C183.10752868 396.62052613 178.24474934 396.60089412 173.38189697 396.57873535 C168.4147708 396.55823562 163.44762508 396.54913278 158.48046875 396.5390625 C148.74343681 396.5176464 139.00649407 396.48353362 129.26953125 396.44140625 C129.10721512 397.55138725 129.10721512 397.55138725 128.94161987 398.68379211 C127.54545076 408.01136056 125.88248493 417.27643323 124.15234375 426.546875 C123.93090006 427.73488425 123.93090006 427.73488425 123.70498276 428.94689369 C122.92500896 433.12811151 122.14205861 437.30876025 121.35693359 441.48901367 C120.71314112 444.9199346 120.07538264 448.35189386 119.44287109 451.78491211 C118.67163934 455.97081061 117.89026106 460.15469656 117.10171127 464.3373661 C116.80565659 465.91657617 116.51302153 467.49643174 116.22406387 469.0769558 C113.73441389 482.66747737 111.06253439 493.98914885 100.26953125 503.44140625 C90.11589181 509.83878601 78.98649137 511.12562309 67.27734375 508.86328125 C57.05420516 505.27048494 50.17830956 497.41762258 45.328125 488.01953125 C41.28690508 474.35990968 44.7149947 461.36657507 47.39453125 447.75390625 C47.79188779 445.6728163 48.18772965 443.59143655 48.58203125 441.50976562 C49.79482937 435.15050229 51.03235903 428.79597267 52.26953125 422.44140625 C53.91953125 413.86140625 55.56953125 405.28140625 57.26953125 396.44140625 C21.95953125 396.44140625 -13.35046875 396.44140625 -49.73046875 396.44140625 C-50.39046875 401.06140625 -51.05046875 405.68140625 -51.73046875 410.44140625 C-52.19142043 413.15583862 -52.6706778 415.86731804 -53.17919922 418.57324219 C-53.37482452 419.62023033 -53.37482452 419.62023033 -53.57440186 420.68836975 C-53.99531398 422.93485074 -54.42098282 425.18038786 -54.84765625 427.42578125 C-54.99528538 428.20583778 -55.14291451 428.98589432 -55.29501724 429.78958893 C-56.07416762 433.9061405 -56.85697825 438.02197484 -57.64306641 442.13720703 C-58.44775687 446.35356881 -59.23999705 450.57217078 -60.02944756 454.79140854 C-60.64553048 458.07175512 -61.27070247 461.35032333 -61.89828873 464.62848663 C-62.19423084 466.18258781 -62.48686581 467.73732297 -62.77593613 469.29271698 C-65.29062514 482.79351515 -68.00731728 494.05032328 -78.73046875 503.44140625 C-88.88410819 509.83878601 -100.01350863 511.12562309 -111.72265625 508.86328125 C-121.94579484 505.27048494 -128.82169044 497.41762258 -133.671875 488.01953125 C-136.82033926 477.37748971 -135.42633457 467.23888496 -133.2734375 456.55859375 C-133.00627485 455.168914 -132.7406254 453.77894259 -132.47639465 452.38870239 C-131.78333042 448.7634739 -131.07048623 445.14242885 -130.35296631 441.52197266 C-129.63034793 437.85808352 -128.92615637 434.1906632 -128.22070312 430.5234375 C-127.18234098 425.13320282 -126.1331692 419.74525873 -125.07495117 414.35888672 C-123.9072271 408.39556996 -122.79618523 402.42375479 -121.73046875 396.44140625 C-122.35528137 396.45250931 -122.98009399 396.46361237 -123.62384033 396.47505188 C-130.17844215 396.58642225 -136.73277143 396.6613931 -143.28808594 396.71606445 C-145.72830133 396.74107327 -148.16844284 396.77509152 -150.60839844 396.81860352 C-154.13364992 396.87985584 -157.6579037 396.9077538 -161.18359375 396.9296875 C-162.7968454 396.96839714 -162.7968454 396.96839714 -164.44268799 397.00788879 C-174.28687727 397.01146292 -183.9075863 394.14530114 -191.203125 387.2421875 C-199.64185784 377.29268408 -201.59700483 367.11989449 -200.91259766 354.44287109 C-200.07976197 345.29060974 -194.52930771 338.27615578 -187.73046875 332.44140625 C-180.36939198 327.88806767 -174.03741324 325.31088077 -165.40136719 325.32788086 C-163.47982819 325.32799416 -163.47982819 325.32799416 -161.51947021 325.32810974 C-160.126261 325.33321599 -158.73305218 325.33843198 -157.33984375 325.34375 C-155.91066538 325.34561593 -154.48148637 325.34703901 -153.05230713 325.34803772 C-149.29746727 325.3518491 -145.54266632 325.36166758 -141.7878418 325.3727417 C-137.95361863 325.3829855 -134.11938916 325.3875417 -130.28515625 325.39257812 C-122.76690938 325.40329111 -115.24869452 325.42035094 -107.73046875 325.44140625 C-107.63769024 324.89504233 -107.54491173 324.34867842 -107.44932175 323.78575802 C-104.59900685 307.06094409 -101.48919189 290.39132847 -98.30859375 273.7265625 C-97.79828328 271.04665388 -97.28852317 268.36664065 -96.77874756 265.68663025 C-95.58681486 259.42203441 -94.39305815 253.15778771 -93.1985929 246.89367431 C-91.83551884 239.74482433 -90.47455905 232.59557233 -89.11374903 225.44629109 C-86.32162223 210.77755763 -83.52693068 196.10931392 -80.73046875 181.44140625 C-81.53511566 181.44806808 -82.33976257 181.45472992 -83.16879272 181.46159363 C-90.78862226 181.52195224 -98.40833424 181.56750555 -106.02834129 181.59684277 C-109.9449428 181.61243286 -113.86134512 181.63354772 -117.77783203 181.66772461 C-121.56446895 181.70055786 -125.35091547 181.71830919 -129.13768387 181.72603798 C-130.57523211 181.73153885 -132.01277111 181.74227954 -133.45023727 181.75859642 C-146.77718567 181.90371991 -157.44991606 180.1318082 -167.484375 170.8125 C-175.1379442 162.54511071 -177.13230369 153.06292419 -176.99609375 142.109375 C-176.23144891 131.55052933 -171.43740691 124.47541571 -163.73046875 117.44140625 C-156.80920287 112.09030051 -150.18634305 110.13091164 -141.43017578 110.21435547 C-140.21454201 110.21391739 -140.21454201 110.21391739 -138.97434998 110.21347046 C-136.31221579 110.21485688 -133.65036617 110.23038551 -130.98828125 110.24609375 C-129.13597771 110.24982633 -127.28367219 110.25267214 -125.43136597 110.25466919 C-120.56846618 110.26228637 -115.70568684 110.28191838 -110.84283447 110.30407715 C-105.8757083 110.32457688 -100.90856258 110.33367972 -95.94140625 110.34375 C-86.20437431 110.3651661 -76.46743157 110.39927888 -66.73046875 110.44140625 C-66.622258 109.70141891 -66.51404724 108.96143158 -66.40255737 108.19902039 C-65.00638826 98.87145194 -63.34342243 89.60637927 -61.61328125 80.3359375 C-61.46565212 79.54393133 -61.31802299 78.75192516 -61.16592026 77.93591881 C-60.38594646 73.75470099 -59.60299611 69.57405225 -58.81787109 65.39379883 C-58.17407862 61.9628779 -57.53632014 58.53091864 -56.90380859 55.09790039 C-56.13257684 50.91200189 -55.35119856 46.72811594 -54.56264877 42.5454464 C-54.26659409 40.96623633 -53.97395903 39.38638076 -53.68500137 37.8058567 C-51.19535139 24.21533513 -48.52347189 12.89366365 -37.73046875 3.44140625 C-26.93419495 -3.36087031 -11.86646316 -5.80183122 0 0 Z M-8.73046875 181.44140625 C-12.62581753 200.02371209 -12.62581753 200.02371209 -16.31762695 218.64331055 C-16.53293564 219.76044434 -16.74824432 220.87757813 -16.97007751 222.02856445 C-17.6591628 225.60719839 -18.34544829 229.18636047 -19.03125 232.765625 C-19.51731503 235.29768011 -20.00341497 237.82972852 -20.48954773 240.36177063 C-21.49681133 245.61110817 -22.50244407 250.86075477 -23.50708008 256.1105957 C-24.66592128 262.16591754 -25.82974629 268.220268 -26.99570972 274.27422208 C-28.12687849 280.14891871 -29.25296603 286.02457739 -30.37715721 291.90061378 C-30.85290796 294.38363226 -31.33017126 296.86636143 -31.80898476 299.34879112 C-32.47377567 302.79770927 -33.13275847 306.24768836 -33.7902832 309.69799805 C-34.08707474 311.22747826 -34.08707474 311.22747826 -34.38986206 312.78785706 C-34.56774765 313.72767426 -34.74563324 314.66749146 -34.9289093 315.63578796 C-35.08465077 316.4480569 -35.24039225 317.26032583 -35.40085316 318.09720898 C-35.84650162 320.87207898 -35.84650162 320.87207898 -35.73046875 325.44140625 C-0.42046875 325.44140625 34.88953125 325.44140625 71.26953125 325.44140625 C75.16488003 306.85910041 75.16488003 306.85910041 78.85668945 288.23950195 C79.07199814 287.12236816 79.28730682 286.00523437 79.50914001 284.85424805 C80.1982253 281.27561411 80.88451079 277.69645203 81.5703125 274.1171875 C82.05637753 271.58513239 82.54247747 269.05308398 83.02861023 266.52104187 C84.03587383 261.27170433 85.04150657 256.02205773 86.04614258 250.7722168 C87.20498378 244.71689496 88.36880879 238.6625445 89.53477222 232.60859042 C90.66594099 226.73389379 91.79202853 220.85823511 92.91621971 214.98219872 C93.39197046 212.49918024 93.86923376 210.01645107 94.34804726 207.53402138 C95.01283817 204.08510323 95.67182097 200.63512414 96.3293457 197.18481445 C96.52720673 196.16516098 96.72506775 195.14550751 96.92892456 194.09495544 C97.19575294 192.68522964 97.19575294 192.68522964 97.4679718 191.24702454 C97.62371327 190.4347556 97.77945475 189.62248667 97.93991566 188.78560352 C98.38556412 186.01073352 98.38556412 186.01073352 98.26953125 181.44140625 C62.95953125 181.44140625 27.64953125 181.44140625 -8.73046875 181.44140625 Z " fill="#3E95E4" transform="translate(224.73046875,2.55859375)"/>
</svg>
